<?xml version="1.0" standalone="no"?>
<!DOCTYPE svg PUBLIC "-//W3C//DTD SVG 20010904//EN"
 "http://www.w3.org/TR/2001/REC-SVG-20010904/DTD/svg10.dtd">
<svg version="1.0" xmlns="http://www.w3.org/2000/svg"
 width="16.000000pt" height="16.000000pt" viewBox="0 0 16.000000 16.000000"
 preserveAspectRatio="xMidYMid meet">

<g transform="translate(0.000000,16.000000) scale(0.100000,-0.100000)"
fill="#000000" stroke="none">
<path d="M36 124 c-9 -8 -16 -24 -16 -34 0 -19 25 -50 40 -50 5 0 10 -8 12
-17 2 -14 10 -11 41 16 40 36 46 60 21 85 -20 21 -78 21 -98 0z m92 -6 c7 -7
12 -20 12 -29 0 -20 -50 -64 -59 -52 -3 4 -15 13 -26 19 -24 14 -31 40 -15 59
15 18 71 20 88 3z"/>
</g>
</svg>
