<?xml version="1.0" standalone="no"?>
<!DOCTYPE svg PUBLIC "-//W3C//DTD SVG 20010904//EN"
 "http://www.w3.org/TR/2001/REC-SVG-20010904/DTD/svg10.dtd">
<svg version="1.0" xmlns="http://www.w3.org/2000/svg"
 width="512.000000pt" height="512.000000pt" viewBox="0 0 512.000000 512.000000"
 preserveAspectRatio="xMidYMid meet">

<g transform="translate(0.000000,512.000000) scale(0.100000,-0.100000)"
fill="#000000" stroke="none">
<path d="M1262 4830 c-324 -41 -613 -186 -836 -420 -234 -246 -368 -540 -411
-900 -41 -346 11 -642 171 -967 177 -357 459 -685 1024 -1189 288 -257 1167
-1007 1210 -1032 40 -24 55 -27 141 -27 89 0 99 2 145 31 47 29 707 591 1124
958 619 543 920 886 1104 1259 160 325 212 621 171 967 -43 360 -177 654 -411
900 -116 121 -233 208 -379 280 -140 68 -205 91 -346 121 -142 30 -404 33
-528 5 -346 -75 -611 -248 -853 -556 l-28 -35 -27 35 c-239 303 -499 475 -833
551 -99 23 -327 33 -438 19z m403 -319 c281 -70 518 -256 718 -563 52 -80 101
-111 177 -111 76 0 125 31 177 111 160 245 366 433 567 515 296 120 644 95
929 -67 507 -289 720 -967 497 -1578 -58 -160 -177 -356 -332 -550 -116 -146
-406 -437 -658 -663 -223 -199 -1171 -1015 -1180 -1015 -9 0 -953 813 -1180
1015 -713 638 -1003 1049 -1065 1515 -62 459 107 923 431 1180 209 166 443
243 714 235 79 -2 154 -11 205 -24z"/>
</g>
</svg>
